<?xml version="1.0" encoding="UTF-8" standalone="no"?>
<!-- Generator: Adobe Illustrator 19.0.0, SVG Export Plug-In . SVG Version: 6.00 Build 0)  -->

<svg
   version="1.1"
   id="Layer_1"
   x="0px"
   y="0px"
   viewBox="-236 286 30 30"
   style="enable-background:new -236 286 30 30;"
   xml:space="preserve"
   sodipodi:docname="settingswhite.svg"
   inkscape:version="1.1.1 (3bf5ae0d25, 2021-09-20)"
   xmlns:inkscape="http://www.inkscape.org/namespaces/inkscape"
   xmlns:sodipodi="http://sodipodi.sourceforge.net/DTD/sodipodi-0.dtd"
   xmlns="http://www.w3.org/2000/svg"
   xmlns:svg="http://www.w3.org/2000/svg"><defs
   id="defs33" /><sodipodi:namedview
   id="namedview31"
   pagecolor="#ffffff"
   bordercolor="#666666"
   borderopacity="1.0"
   inkscape:pageshadow="2"
   inkscape:pageopacity="0.0"
   inkscape:pagecheckerboard="0"
   showgrid="false"
   inkscape:zoom="28.033333"
   inkscape:cx="14.982164"
   inkscape:cy="15.017836"
   inkscape:window-width="2032"
   inkscape:window-height="997"
   inkscape:window-x="8"
   inkscape:window-y="40"
   inkscape:window-maximized="0"
   inkscape:current-layer="Layer_1" />
<g
   id="g28"
   style="fill:#f9f9f9">
	<path
   d="M-209.1,286h-23.7c-1.7,0-3.1,1.4-3.1,3v24c0,1.7,1.4,3,3.1,3h23.7c1.7,0,3.1-1.4,3.1-3v-24   C-206,287.4-207.4,286-209.1,286z M-207,313c0,1.1-1,2-2.1,2h-23.7c-1.2,0-2.1-0.9-2.1-2v-24c0-1.1,1-2,2.1-2h23.7   c1.2,0,2.1,0.9,2.1,2V313z"
   id="path2"
   style="fill:#f9f9f9" />
	<path
   d="M-229.5,300h-2c-0.3,0-0.5,0.2-0.5,0.5s0.2,0.5,0.5,0.5h2c0.3,0,0.5-0.2,0.5-0.5S-229.2,300-229.5,300z"
   id="path4"
   style="fill:#f9f9f9" />
	<path
   d="M-230.5,298c0.3,0,0.5-0.2,0.5-0.5v-7c0-0.3-0.2-0.5-0.5-0.5s-0.5,0.2-0.5,0.5v7C-231,297.8-230.8,298-230.5,298z"
   id="path6"
   style="fill:#f9f9f9" />
	<path
   d="M-230.5,303c-0.3,0-0.5,0.2-0.5,0.5v8c0,0.3,0.2,0.5,0.5,0.5s0.5-0.2,0.5-0.5v-8C-230,303.2-230.2,303-230.5,303z"
   id="path8"
   style="fill:#f9f9f9" />
	<path
   d="M-223.5,305h-2c-0.3,0-0.5,0.2-0.5,0.5s0.2,0.5,0.5,0.5h2c0.3,0,0.5-0.2,0.5-0.5S-223.2,305-223.5,305z"
   id="path10"
   style="fill:#f9f9f9" />
	<path
   d="M-224.5,303c0.3,0,0.5-0.2,0.5-0.5v-12c0-0.3-0.2-0.5-0.5-0.5s-0.5,0.2-0.5,0.5v12C-225,302.8-224.8,303-224.5,303z"
   id="path12"
   style="fill:#f9f9f9" />
	<path
   d="M-224.5,308c-0.3,0-0.5,0.2-0.5,0.5v3c0,0.3,0.2,0.5,0.5,0.5s0.5-0.2,0.5-0.5v-3C-224,308.2-224.2,308-224.5,308z"
   id="path14"
   style="fill:#f9f9f9" />
	<path
   d="M-216.5,297h-2c-0.3,0-0.5,0.2-0.5,0.5s0.2,0.5,0.5,0.5h2c0.3,0,0.5-0.2,0.5-0.5S-216.2,297-216.5,297z"
   id="path16"
   style="fill:#f9f9f9" />
	<path
   d="M-217.5,296c0.3,0,0.5-0.2,0.5-0.5v-5c0-0.3-0.2-0.5-0.5-0.5s-0.5,0.2-0.5,0.5v5C-218,295.8-217.8,296-217.5,296z"
   id="path18"
   style="fill:#f9f9f9" />
	<path
   d="M-217.5,300c-0.3,0-0.5,0.2-0.5,0.5v11c0,0.3,0.2,0.5,0.5,0.5s0.5-0.2,0.5-0.5v-11C-217,300.2-217.2,300-217.5,300z"
   id="path20"
   style="fill:#f9f9f9" />
	<path
   d="M-210.5,303h-2c-0.3,0-0.5,0.2-0.5,0.5s0.2,0.5,0.5,0.5h2c0.3,0,0.5-0.2,0.5-0.5S-210.2,303-210.5,303z"
   id="path22"
   style="fill:#f9f9f9" />
	<path
   d="M-211.5,301c0.3,0,0.5-0.2,0.5-0.5v-10c0-0.3-0.2-0.5-0.5-0.5s-0.5,0.2-0.5,0.5v10C-212,300.8-211.8,301-211.5,301z"
   id="path24"
   style="fill:#f9f9f9" />
	<path
   d="M-211.5,305c-0.3,0-0.5,0.2-0.5,0.5v6c0,0.3,0.2,0.5,0.5,0.5s0.5-0.2,0.5-0.5v-6C-211,305.2-211.2,305-211.5,305z"
   id="path26"
   style="fill:#f9f9f9" />
</g>
</svg>
